<?xml version="1.0" encoding="UTF-8" standalone="no"?>
<!-- Created with Inkscape (http://www.inkscape.org/) -->

<svg
   version="1.1"
   id="svg2"
   xml:space="preserve"
   width="837.83063"
   height="150.83208"
   viewBox="0 0 837.83064 150.83208"
   sodipodi:docname="pclm2.svg"
   inkscape:export-filename="/home/jon/Dropbox/sci/2021-11-exdelta/pvt/assets/pclm2.png"
   inkscape:export-xdpi="300"
   inkscape:export-ydpi="300"
   inkscape:version="1.1 (c68e22c387, 2021-05-23)"
   xmlns:inkscape="http://www.inkscape.org/namespaces/inkscape"
   xmlns:sodipodi="http://sodipodi.sourceforge.net/DTD/sodipodi-0.dtd"
   xmlns="http://www.w3.org/2000/svg"
   xmlns:svg="http://www.w3.org/2000/svg"><defs
     id="defs6"><clipPath
       clipPathUnits="userSpaceOnUse"
       id="clipPath36"><path
         d="M 0,0 H 720 V 560.18 H 0 Z"
         id="path34" /></clipPath><clipPath
       clipPathUnits="userSpaceOnUse"
       id="clipPath256"><path
         d="m 37.15,23.57 h 605.38 v 81.39 H 37.15 Z"
         id="path254" /></clipPath><clipPath
       clipPathUnits="userSpaceOnUse"
       id="clipPath298"><path
         d="m 37.15,531.84 h 605.38 v 13.13 H 37.15 Z"
         id="path296" /></clipPath><clipPath
       clipPathUnits="userSpaceOnUse"
       id="clipPath306"><path
         d="m 37.15,531.84 h 605.38 v 13.13 H 37.15 Z"
         id="path304" /></clipPath><clipPath
       clipPathUnits="userSpaceOnUse"
       id="clipPath318"><path
         d="m 37.15,531.84 h 605.38 v 13.13 H 37.15 Z"
         id="path316" /></clipPath><clipPath
       clipPathUnits="userSpaceOnUse"
       id="clipPath326"><path
         d="m 37.15,531.84 h 605.38 v 13.13 H 37.15 Z"
         id="path324" /></clipPath><clipPath
       clipPathUnits="userSpaceOnUse"
       id="clipPath336"><path
         d="m 642.53,450.45 h 13.13 v 81.39 h -13.13 z"
         id="path334" /></clipPath><clipPath
       clipPathUnits="userSpaceOnUse"
       id="clipPath356"><path
         d="m 642.53,450.45 h 13.13 v 81.39 h -13.13 z"
         id="path354" /></clipPath><clipPath
       clipPathUnits="userSpaceOnUse"
       id="clipPath364"><path
         d="m 642.53,450.45 h 13.13 v 81.39 h -13.13 z"
         id="path362" /></clipPath><clipPath
       clipPathUnits="userSpaceOnUse"
       id="clipPath374"><path
         d="m 642.53,365.07 h 13.13 v 81.39 h -13.13 z"
         id="path372" /></clipPath><clipPath
       clipPathUnits="userSpaceOnUse"
       id="clipPath394"><path
         d="m 642.53,365.07 h 13.13 v 81.39 h -13.13 z"
         id="path392" /></clipPath><clipPath
       clipPathUnits="userSpaceOnUse"
       id="clipPath402"><path
         d="m 642.53,365.07 h 13.13 v 81.39 h -13.13 z"
         id="path400" /></clipPath><clipPath
       clipPathUnits="userSpaceOnUse"
       id="clipPath412"><path
         d="m 642.53,279.69 h 13.13 v 81.39 h -13.13 z"
         id="path410" /></clipPath><clipPath
       clipPathUnits="userSpaceOnUse"
       id="clipPath432"><path
         d="m 642.53,279.69 h 13.13 v 81.39 h -13.13 z"
         id="path430" /></clipPath><clipPath
       clipPathUnits="userSpaceOnUse"
       id="clipPath440"><path
         d="m 642.53,279.69 h 13.13 v 81.39 h -13.13 z"
         id="path438" /></clipPath><clipPath
       clipPathUnits="userSpaceOnUse"
       id="clipPath450"><path
         d="m 642.53,194.32 h 13.13 v 81.39 h -13.13 z"
         id="path448" /></clipPath><clipPath
       clipPathUnits="userSpaceOnUse"
       id="clipPath470"><path
         d="m 642.53,194.32 h 13.13 v 81.39 h -13.13 z"
         id="path468" /></clipPath><clipPath
       clipPathUnits="userSpaceOnUse"
       id="clipPath478"><path
         d="m 642.53,194.32 h 13.13 v 81.39 h -13.13 z"
         id="path476" /></clipPath><clipPath
       clipPathUnits="userSpaceOnUse"
       id="clipPath488"><path
         d="m 642.53,108.94 h 13.13 v 81.39 h -13.13 z"
         id="path486" /></clipPath><clipPath
       clipPathUnits="userSpaceOnUse"
       id="clipPath508"><path
         d="m 642.53,108.94 h 13.13 v 81.39 h -13.13 z"
         id="path506" /></clipPath><clipPath
       clipPathUnits="userSpaceOnUse"
       id="clipPath516"><path
         d="m 642.53,108.94 h 13.13 v 81.39 h -13.13 z"
         id="path514" /></clipPath><clipPath
       clipPathUnits="userSpaceOnUse"
       id="clipPath526"><path
         d="m 642.53,23.57 h 13.13 v 81.39 h -13.13 z"
         id="path524" /></clipPath><clipPath
       clipPathUnits="userSpaceOnUse"
       id="clipPath546"><path
         d="m 642.53,23.57 h 13.13 v 81.39 h -13.13 z"
         id="path544" /></clipPath><clipPath
       clipPathUnits="userSpaceOnUse"
       id="clipPath554"><path
         d="m 642.53,23.57 h 13.13 v 81.39 h -13.13 z"
         id="path552" /></clipPath></defs><sodipodi:namedview
     id="namedview4"
     pagecolor="#ffffff"
     bordercolor="#666666"
     borderopacity="1.0"
     inkscape:pageshadow="2"
     inkscape:pageopacity="0.0"
     inkscape:pagecheckerboard="0"
     showgrid="false"
     fit-margin-top="1"
     fit-margin-left="1"
     fit-margin-bottom="1"
     fit-margin-right="1"
     inkscape:zoom="1.1341146"
     inkscape:cx="554.61768"
     inkscape:cy="121.68083"
     inkscape:window-width="2560"
     inkscape:window-height="1376"
     inkscape:window-x="0"
     inkscape:window-y="0"
     inkscape:window-maximized="1"
     inkscape:current-layer="g8" /><g
     id="g8"
     inkscape:groupmode="layer"
     inkscape:label="pclm_death_ungroup_diagnostics"
     transform="matrix(1.3333333,0,0,-1.3333333,-20.302708,162.93333)"><g
       id="g14" /><g
       id="g16" /><g
       id="g18" /><g
       id="g20" /><g
       id="g22" /><g
       id="g24" /><g
       id="g26" /><g
       id="g28" /><g
       id="g30"><g
         id="g32"
         clip-path="url(#clipPath36)" /></g><g
       id="g38" /><g
       id="g80" /><g
       id="g122" /><g
       id="g164" /><g
       id="g206" /><g
       id="g248" /><g
       id="g250"><g
         id="g252"
         clip-path="url(#clipPath256)"><path
           d="M 37.15,27.27 H 642.53"
           style="fill:none;stroke:#cccccc;stroke-width:0.64;stroke-linecap:square;stroke-linejoin:round;stroke-miterlimit:10;stroke-dasharray:0, 2.56;stroke-dashoffset:0;stroke-opacity:1"
           id="path258" /><path
           d="M 37.15,48.01 H 642.53"
           style="fill:none;stroke:#cccccc;stroke-width:0.64;stroke-linecap:square;stroke-linejoin:round;stroke-miterlimit:10;stroke-dasharray:0, 2.56;stroke-dashoffset:0;stroke-opacity:1"
           id="path260" /><path
           d="M 37.15,68.75 H 642.53"
           style="fill:none;stroke:#cccccc;stroke-width:0.64;stroke-linecap:square;stroke-linejoin:round;stroke-miterlimit:10;stroke-dasharray:0, 2.56;stroke-dashoffset:0;stroke-opacity:1"
           id="path262" /><path
           d="M 37.15,89.49 H 642.53"
           style="fill:none;stroke:#cccccc;stroke-width:0.64;stroke-linecap:square;stroke-linejoin:round;stroke-miterlimit:10;stroke-dasharray:0, 2.56;stroke-dashoffset:0;stroke-opacity:1"
           id="path264" /><path
           d="m 64.67,27.27 h 75.05 v 0.36 H 64.67 Z"
           style="fill:#d23737;fill-opacity:0.4;fill-rule:nonzero;stroke:none"
           id="path266" /><path
           d="m 139.72,27.27 h 250.16 v 4.09 H 139.72 Z"
           style="fill:#d23737;fill-opacity:0.4;fill-rule:nonzero;stroke:none"
           id="path268" /><path
           d="M 389.87,27.27 H 439.9 V 42.32 H 389.87 Z"
           style="fill:#d23737;fill-opacity:0.4;fill-rule:nonzero;stroke:none"
           id="path270" /><path
           d="m 439.91,27.27 h 50.03 v 45.36 h -50.03 z"
           style="fill:#d23737;fill-opacity:0.4;fill-rule:nonzero;stroke:none"
           id="path272" /><path
           d="M 489.94,27.27 H 615.02 V 53.56 H 489.94 Z"
           style="fill:#d23737;fill-opacity:0.4;fill-rule:nonzero;stroke:none"
           id="path274" /><path
           d="m 64.67,27.27 h 75.05 v 0.49 H 64.67 Z"
           style="fill:#3191c9;fill-opacity:0.4;fill-rule:nonzero;stroke:none"
           id="path276" /><path
           d="m 139.72,27.27 h 250.16 v 9.77 H 139.72 Z"
           style="fill:#3191c9;fill-opacity:0.4;fill-rule:nonzero;stroke:none"
           id="path278" /><path
           d="M 389.87,27.27 H 439.9 V 62.38 H 389.87 Z"
           style="fill:#3191c9;fill-opacity:0.4;fill-rule:nonzero;stroke:none"
           id="path280" /><path
           d="m 439.91,27.27 h 50.03 v 56.84 h -50.03 z"
           style="fill:#3191c9;fill-opacity:0.4;fill-rule:nonzero;stroke:none"
           id="path282" /><path
           d="M 489.94,27.27 H 615.02 V 40.2 H 489.94 Z"
           style="fill:#3191c9;fill-opacity:0.4;fill-rule:nonzero;stroke:none"
           id="path284" /><path
           d="m 64.67,27.44 5,0.02 5.01,0.02 5,0.02 5,0.02 5.01,0.02 5,0.03 5,0.03 5.01,0.03 5,0.03 5,0.04 5.01,0.04 5,0.05 5,0.05 5,0.05 5.01,0.06 5,0.07 5,0.06 5.01,0.08 5,0.08 5,0.08 5.01,0.09 5,0.1 5,0.1 5.01,0.11 5,0.12 5,0.12 5.01,0.13 5,0.14 5,0.14 5,0.14 5.01,0.16 5,0.15 5,0.16 5.01,0.17 5,0.17 5,0.17 5.01,0.17 5,0.17 5,0.18 5.01,0.18 5,0.17 5,0.18 5.01,0.17 5,0.18 5,0.17 5,0.17 5.01,0.17 5,0.17 5,0.18 5.01,0.17 5,0.17 5,0.18 5.01,0.18 5,0.2 5,0.2 5.01,0.21 5,0.23 5,0.24 5.01,0.28 5,0.3 5,0.34 5,0.38 5.01,0.43 5,0.5 5,0.58 5.01,0.67 5,0.79 5,0.92 5.01,1.09 5,1.28 5,1.51 5.01,1.78 5,2.09 5,2.45 5.01,2.85 5,3.29 5,3.78 5,4.27 5.01,4.76 5,5.18 5,5.49 5.01,5.6 5,5.4 5,4.8 5.01,3.71 5,2.11 5,0.1 5.01,-2.15 5,-4.36 5,-6.26 5.01,-7.64 5,-8.34 5,-8.4 5.01,-7.87 5,-6.96 5,-5.83 5,-4.65 5.01,-3.55 5,-2.61 5,3.95"
           style="fill:none;stroke:#d23737;stroke-width:1.07;stroke-linecap:butt;stroke-linejoin:round;stroke-miterlimit:10;stroke-dasharray:none;stroke-opacity:1"
           id="path286" /><path
           d="m 64.67,27.48 5,0.02 5.01,0.03 5,0.03 5,0.03 5.01,0.03 5,0.04 5,0.05 5.01,0.05 5,0.05 5,0.06 5.01,0.06 5,0.08 5,0.08 5,0.09 5.01,0.09 5,0.11 5,0.12 5.01,0.13 5,0.14 5,0.16 5.01,0.17 5,0.18 5,0.2 5.01,0.21 5,0.24 5,0.25 5.01,0.27 5,0.29 5,0.31 5,0.32 5.01,0.35 5,0.37 5,0.39 5.01,0.41 5,0.43 5,0.45 5.01,0.46 5,0.49 5,0.5 5.01,0.52 5,0.53 5,0.54 5.01,0.56 5,0.56 5,0.58 5,0.58 5.01,0.59 5,0.6 5,0.61 5.01,0.61 5,0.62 5,0.62 5.01,0.64 5,0.65 5,0.66 5.01,0.68 5,0.71 5,0.74 5.01,0.77 5,0.82 5,0.88 5,0.94 5.01,1.04 5,1.13 5,1.26 5.01,1.41 5,1.58 5,1.77 5.01,1.99 5,2.21 5,2.45 5.01,2.66 5,2.86 5,2.99 5.01,3.04 5,2.98 5,2.76 5,2.39 5.01,1.83 5,1.12 5,0.26 5.01,-0.72 5,-1.75 5,-2.77 5.01,-3.71 5,-4.49 5,-5.05 5.01,-5.38 5,-5.42 5,-5.24 5.01,-4.86 5,-4.34 5,-3.74 5.01,-3.13 5,-2.54 5,-2.01 5,-1.55 5.01,-1.16 5,-0.86 5,2.07"
           style="fill:none;stroke:#3191c9;stroke-width:1.07;stroke-linecap:butt;stroke-linejoin:round;stroke-miterlimit:10;stroke-dasharray:none;stroke-opacity:1"
           id="path288" /></g></g><g
       id="g290" /><g
       id="g292"><g
         id="g294"
         clip-path="url(#clipPath298)" /></g><g
       id="g300"
       transform="translate(0,-435)"><g
         id="g302"
         clip-path="url(#clipPath306)"><text
           transform="matrix(1,0,0,-1,310.48,535.53)"
           style="font-variant:normal;font-weight:normal;font-size:8px;font-family:Roboto;-inkscape-font-specification:Roboto;writing-mode:lr-tb;fill:#000000;fill-opacity:1;fill-rule:nonzero;stroke:none"
           id="text310"><tspan
             x="0"
             y="0"
             sodipodi:role="line"
             id="tspan308">0−15−65−75−85</tspan></text></g></g><g
       id="g312"><g
         id="g314"
         clip-path="url(#clipPath318)" /></g><g
       id="g320"><g
         id="g322"
         clip-path="url(#clipPath326)" /></g><g
       id="g328" /><g
       id="g330"><g
         id="g332"
         clip-path="url(#clipPath336)" /></g><g
       id="g350"><g
         id="g352"
         clip-path="url(#clipPath356)" /></g><g
       id="g358"><g
         id="g360"
         clip-path="url(#clipPath364)" /></g><g
       id="g366" /><g
       id="g368"><g
         id="g370"
         clip-path="url(#clipPath374)" /></g><g
       id="g388"><g
         id="g390"
         clip-path="url(#clipPath394)" /></g><g
       id="g396"><g
         id="g398"
         clip-path="url(#clipPath402)" /></g><g
       id="g404" /><g
       id="g406"><g
         id="g408"
         clip-path="url(#clipPath412)" /></g><g
       id="g426"><g
         id="g428"
         clip-path="url(#clipPath432)" /></g><g
       id="g434"><g
         id="g436"
         clip-path="url(#clipPath440)" /></g><g
       id="g442" /><g
       id="g444"><g
         id="g446"
         clip-path="url(#clipPath450)" /></g><g
       id="g464"><g
         id="g466"
         clip-path="url(#clipPath470)" /></g><g
       id="g472"><g
         id="g474"
         clip-path="url(#clipPath478)" /></g><g
       id="g480" /><g
       id="g482"><g
         id="g484"
         clip-path="url(#clipPath488)" /></g><g
       id="g502"><g
         id="g504"
         clip-path="url(#clipPath508)" /></g><g
       id="g510"><g
         id="g512"
         clip-path="url(#clipPath516)" /></g><g
       id="g518" /><g
       id="g520"><g
         id="g522"
         clip-path="url(#clipPath526)" /></g><g
       id="g540"><g
         id="g542"
         clip-path="url(#clipPath546)" /></g><g
       id="g548"><g
         id="g550"
         clip-path="url(#clipPath554)" /></g><g
       id="g556" /><g
       id="g558" /><g
       id="g560" /><g
       id="g562" /><g
       id="g564"><path
         d="M 37.15,23.57 H 642.53"
         style="fill:none;stroke:#000000;stroke-width:0.64;stroke-linecap:square;stroke-linejoin:round;stroke-miterlimit:10;stroke-dasharray:none;stroke-opacity:1"
         id="path566" /></g><g
       id="g568" /><g
       id="g570" /><g
       id="g572" /><g
       id="g574" /><g
       id="g576"><text
         transform="matrix(1,0,0,-1,62.45,14.24)"
         style="font-variant:normal;font-weight:normal;font-size:8px;font-family:Roboto;-inkscape-font-specification:Roboto;writing-mode:lr-tb;fill:#000000;fill-opacity:1;fill-rule:nonzero;stroke:none"
         id="text580"><tspan
           x="0"
           y="0"
           id="tspan578">0</tspan></text><text
         transform="matrix(1,0,0,-1,210.32,14.24)"
         style="font-variant:normal;font-weight:normal;font-size:8px;font-family:Roboto;-inkscape-font-specification:Roboto;writing-mode:lr-tb;fill:#000000;fill-opacity:1;fill-rule:nonzero;stroke:none"
         id="text584"><tspan
           x="0"
           y="0"
           sodipodi:role="line"
           id="tspan582">30</tspan></text><text
         transform="matrix(1,0,0,-1,360.41,14.24)"
         style="font-variant:normal;font-weight:normal;font-size:8px;font-family:Roboto;-inkscape-font-specification:Roboto;writing-mode:lr-tb;fill:#000000;fill-opacity:1;fill-rule:nonzero;stroke:none"
         id="text588"><tspan
           x="0"
           y="0"
           sodipodi:role="line"
           id="tspan586">60</tspan></text><text
         transform="matrix(1,0,0,-1,510.5,14.24)"
         style="font-variant:normal;font-weight:normal;font-size:8px;font-family:Roboto;-inkscape-font-specification:Roboto;writing-mode:lr-tb;fill:#000000;fill-opacity:1;fill-rule:nonzero;stroke:none"
         id="text592"><tspan
           x="0"
           y="0"
           sodipodi:role="line"
           id="tspan590">90</tspan></text></g><g
       id="g594" /><g
       id="g596" /><g
       id="g598" /><g
       id="g600" /><g
       id="g602" /><g
       id="g604" /><g
       id="g606" /><g
       id="g626" /><g
       id="g628" /><g
       id="g630" /><g
       id="g632" /><g
       id="g634" /><g
       id="g636" /><g
       id="g638" /><g
       id="g640" /><g
       id="g642" /><g
       id="g662" /><g
       id="g664" /><g
       id="g666" /><g
       id="g668" /><g
       id="g670" /><g
       id="g672" /><g
       id="g674" /><g
       id="g676" /><g
       id="g678" /><g
       id="g698" /><g
       id="g700" /><g
       id="g702" /><g
       id="g704" /><g
       id="g706" /><g
       id="g708" /><g
       id="g710" /><g
       id="g712" /><g
       id="g714" /><g
       id="g734" /><g
       id="g736" /><g
       id="g738" /><g
       id="g740" /><g
       id="g742" /><g
       id="g744" /><g
       id="g746" /><g
       id="g748" /><g
       id="g750" /><g
       id="g770" /><g
       id="g772" /><g
       id="g774" /><g
       id="g776" /><g
       id="g778" /><g
       id="g780" /><g
       id="g782" /><g
       id="g784" /><g
       id="g786" /><g
       id="g788"><text
         transform="matrix(1,0,0,-1,29.12,24.39)"
         style="font-variant:normal;font-weight:normal;font-size:8px;font-family:Roboto;-inkscape-font-specification:Roboto;writing-mode:lr-tb;fill:#000000;fill-opacity:1;fill-rule:nonzero;stroke:none"
         id="text792"><tspan
           x="0"
           y="0"
           id="tspan790">0</tspan></text><text
         transform="matrix(1,0,0,-1,15.77,45.13)"
         style="font-variant:normal;font-weight:normal;font-size:8px;font-family:Roboto;-inkscape-font-specification:Roboto;writing-mode:lr-tb;fill:#000000;fill-opacity:1;fill-rule:nonzero;stroke:none"
         id="text796"><tspan
           x="0"
           y="0"
           sodipodi:role="line"
           id="tspan794">2000</tspan></text><text
         transform="matrix(1,0,0,-1,15.77,65.87)"
         style="font-variant:normal;font-weight:normal;font-size:8px;font-family:Roboto;-inkscape-font-specification:Roboto;writing-mode:lr-tb;fill:#000000;fill-opacity:1;fill-rule:nonzero;stroke:none"
         id="text800"><tspan
           x="0"
           y="0"
           sodipodi:role="line"
           id="tspan798">4000</tspan></text><text
         transform="matrix(1,0,0,-1,15.77,86.61)"
         style="font-variant:normal;font-weight:normal;font-size:8px;font-family:Roboto;-inkscape-font-specification:Roboto;writing-mode:lr-tb;fill:#000000;fill-opacity:1;fill-rule:nonzero;stroke:none"
         id="text804"><tspan
           x="0"
           y="0"
           sodipodi:role="line"
           id="tspan802">6000</tspan></text></g><g
       id="g806" /><g
       id="g808" /><g
       id="g810" /><g
       id="g812" /><g
       id="g814" /><g
       id="g816" /><g
       id="g818" /><g
       id="g820" /><g
       id="g822" /><g
       id="g824" /><g
       id="g826" /><g
       id="g828" /><g
       id="g830" /><g
       id="g832" /><g
       id="g834" /><g
       id="g836" /><g
       id="g838" /><g
       id="g840" /><g
       id="g842" /><g
       id="g844"
       transform="translate(0,6)"><text
         transform="matrix(1,0,0,-1,321.98,5.49)"
         style="font-variant:normal;font-weight:bold;font-size:8px;font-family:Roboto;-inkscape-font-specification:Roboto;writing-mode:lr-tb;fill:#000000;fill-opacity:1;fill-rule:nonzero;stroke:none"
         id="text848"><tspan
           x="0"
           y="0"
           sodipodi:role="line"
           id="tspan846">Age</tspan></text></g><g
       id="g850" /><g
       id="g858" /><g
       id="g860" /><g
       id="g862" /><g
       id="g864" /><g
       id="g866" /><g
       id="g868" /><g
       id="g870" /><g
       id="g872" /><g
       id="g874" /><g
       id="g876" /><g
       id="g878" /><g
       id="g880"
       transform="translate(0,-207)" /><g
       id="g886" /><g
       id="g888" /><g
       id="g890" /><g
       id="g892" /><g
       id="g894"
       transform="translate(-111.5431,-188.54269)"><path
         d="m 668.33,273.04 h 15.86 v 15.86 h -15.86 z"
         style="fill:#3191c9;fill-opacity:0.4;fill-rule:nonzero;stroke:none"
         id="path896" /></g><g
       id="g898" /><g
       id="g900"
       transform="translate(-111.5431,-188.54269)"><path
         d="m 669.35,280.97 h 13.82"
         style="fill:none;stroke:#3191c9;stroke-width:1.07;stroke-linecap:butt;stroke-linejoin:round;stroke-miterlimit:10;stroke-dasharray:none;stroke-opacity:1"
         id="path902" /></g><g
       id="g904" /><g
       id="g906" /><g
       id="g908" /><g
       id="g910"
       transform="translate(-111.5431,-188.54269)"><path
         d="m 668.33,255.76 h 15.86 v 15.86 h -15.86 z"
         style="fill:#d23737;fill-opacity:0.4;fill-rule:nonzero;stroke:none"
         id="path912" /></g><g
       id="g914" /><g
       id="g916"
       transform="translate(-111.5431,-188.54269)"><path
         d="m 669.35,263.69 h 13.82"
         style="fill:none;stroke:#d23737;stroke-width:1.07;stroke-linecap:butt;stroke-linejoin:round;stroke-miterlimit:10;stroke-dasharray:none;stroke-opacity:1"
         id="path918" /></g><g
       id="g920" /><g
       id="g922" /><g
       id="g924" /><g
       id="g926"
       transform="translate(-111.5431,-188.54269)"><text
         transform="matrix(1,0,0,-1,688.89,278.82)"
         style="font-variant:normal;font-weight:normal;font-size:6px;font-family:Roboto;-inkscape-font-specification:Roboto;writing-mode:lr-tb;fill:#000000;fill-opacity:1;fill-rule:nonzero;stroke:none"
         id="text930"><tspan
           x="0"
           y="0"
           sodipodi:role="line"
           id="tspan928">Male</tspan></text></g><g
       id="g932" /><g
       id="g934" /><g
       id="g936" /><g
       id="g938" /><g
       id="g940"
       transform="translate(-111.5431,-188.54269)"><text
         transform="matrix(1,0,0,-1,688.89,261.54)"
         style="font-variant:normal;font-weight:normal;font-size:6px;font-family:Roboto;-inkscape-font-specification:Roboto;writing-mode:lr-tb;fill:#000000;fill-opacity:1;fill-rule:nonzero;stroke:none"
         id="text944"><tspan
           x="0"
           y="0"
           sodipodi:role="line"
           id="tspan942">Female</tspan></text></g><g
       id="g946" /><g
       id="g948" /><g
       id="g950" /><g
       id="g952" /><g
       id="g954"
       transform="translate(0,-435)"><text
         transform="matrix(1,0,0,-1,37.15,550.45)"
         style="font-variant:normal;font-weight:bold;font-size:8px;font-family:Roboto;-inkscape-font-specification:Roboto;writing-mode:lr-tb;fill:#000000;fill-opacity:1;fill-rule:nonzero;stroke:none"
         id="text958"><tspan
           x="0"
           y="0"
           sodipodi:role="line"
           id="tspan956">PCLM estimated singe age death counts in South Korea 2020</tspan></text></g><g
       id="g960" /><g
       id="g962" /><g
       id="g964" /><g
       id="g966" /><g
       id="g968" /><g
       id="g970" /><g
       id="g972" /><g
       id="g974" /><g
       id="g982" /><g
       id="g984" /><path
       style="fill:none;stroke:#cccccc;stroke-width:0.75px;stroke-linecap:butt;stroke-linejoin:miter;stroke-opacity:1"
       d="M 139.72,27.270002 V 100.42319"
       id="path16818" /><path
       style="fill:none;stroke:#cccccc;stroke-width:0.75px;stroke-linecap:butt;stroke-linejoin:miter;stroke-opacity:1"
       d="m 389.88,27.27 v 73.15319"
       id="path16818-3" /><path
       style="fill:none;stroke:#cccccc;stroke-width:0.75px;stroke-linecap:butt;stroke-linejoin:miter;stroke-opacity:1"
       d="m 439.91,27.27 v 73.15319"
       id="path16818-9" /><path
       style="fill:none;stroke:#cccccc;stroke-width:0.75px;stroke-linecap:butt;stroke-linejoin:miter;stroke-opacity:1"
       d="m 489.94,27.27 v 73.15319"
       id="path16818-1" /></g></svg>
